<svg width="924" height="448" viewBox="0 0 924 448" fill="none" xmlns="http://www.w3.org/2000/svg">
<g opacity="0.2" filter="url(#filter0_f)">
<path d="M188.362 437C181.463 437.011 174.571 436.561 167.732 435.652C111.498 428.159 60.4682 390.364 11.5914 320.091L11 319.24L11.7807 318.554L328.675 35.452L329.409 36.6575C344.526 60.602 360.353 73.9806 377.836 77.5262C404.948 83.0336 432.817 63.6748 459.763 44.9542C487.111 26.0445 515.406 6.28382 543.511 12.004C561.585 15.6678 577.886 29.3064 593.31 53.6999L719.051 130.544C730.411 129.594 741.84 129.864 753.142 131.348C809.376 138.841 860.406 176.637 909.282 246.91L912.476 251.519L718.483 132.908C632.559 140.259 545.616 213.274 461.206 284.328C371.851 359.517 279.68 437 188.362 437ZM14.2174 319.641C62.4082 388.78 112.728 426.009 167.992 433.336C264.989 446.242 363.949 363.086 459.621 282.626C543.298 212.305 629.459 139.881 715.124 130.97L591.607 55.4491L591.465 55.2127C576.348 31.2683 560.521 17.866 542.943 14.3205C515.831 8.813 487.963 28.1718 461.017 46.8924C433.668 65.8021 405.397 85.5628 377.268 79.8426C359.407 76.2261 343.32 62.8948 328.06 39.0922L14.2174 319.641ZM722.529 132.719L903.983 243.648C856.668 176.944 807.105 140.968 752.834 133.735C742.789 132.421 732.641 132.073 722.529 132.695V132.719Z" fill="#C9E4F4"/>
<path d="M221.507 377.576C215.176 377.58 208.853 377.153 202.58 376.3C152.805 369.469 107.642 335.715 64.3012 273.076L66.2648 271.729C109.085 333.776 153.798 367.223 203.006 373.96C288.363 385.636 375.447 313.141 459.668 243.01C544.316 172.547 631.826 99.8159 718.2 111.634C768.07 118.466 813.327 152.219 856.574 214.858L854.61 216.205C811.79 154.134 767.077 120.711 717.869 113.975C632.535 102.298 545.428 174.793 461.206 244.924C382.71 310.187 301.753 377.576 221.507 377.576Z" fill="#C9E4F4"/>
<path d="M254.627 318.152C248.944 318.151 243.268 317.748 237.641 316.947C194.087 310.777 154.626 281.042 116.987 226.038L118.927 224.715C156.211 279.08 195.175 308.532 238.019 314.536C311.713 324.983 387.063 263.149 459.739 203.441C532.913 143.285 608.57 81.119 683.281 91.7084C726.835 97.8777 766.296 127.613 803.935 182.617L801.995 183.941C764.711 129.575 725.746 100.123 682.902 94.1194C609.209 83.6718 533.859 145.507 461.182 205.214C393.569 260.809 323.802 318.152 254.627 318.152Z" fill="#C9E4F4"/>
<path d="M287.794 258.729C282.703 258.736 277.619 258.364 272.582 257.618C235.393 252.086 201.609 226.369 169.553 179.024L171.517 177.819C203.265 224.597 236.434 249.983 272.937 255.396C334.968 264.638 398.323 213.44 459.691 163.92C521.414 114.093 585.243 62.5639 648.29 71.9479C685.48 77.479 719.263 103.173 751.32 150.541L749.356 151.865C717.607 105.087 684.439 79.7009 647.935 74.288C585.905 65.0695 522.55 116.244 461.182 165.764C404.427 211.454 345.898 258.729 287.794 258.729Z" fill="#C9E4F4"/>
<path d="M320.963 199.352C316.464 199.359 311.971 199.011 307.526 198.312C276.771 193.419 248.76 171.72 222.169 131.986L224.133 130.662C250.345 169.829 277.741 191.197 307.904 195.972C358.295 203.937 409.845 163.4 459.716 124.186C509.965 84.6644 561.941 43.8194 613.349 51.9269C644.104 56.8198 672.115 78.5187 698.706 118.253L696.719 119.576C670.53 80.4097 643.134 59.0417 612.97 54.267C562.603 46.3013 511.029 86.839 461.159 126.053C415.192 162.147 367.877 199.352 320.963 199.352Z" fill="#C9E4F4"/>
<path d="M354.178 139.999C350.213 140.008 346.255 139.668 342.349 138.983C317.84 134.728 295.696 117.024 274.665 84.901L276.652 83.601C297.305 115.157 318.928 132.506 342.751 136.666C381.503 143.403 421.2 113.478 459.597 84.5228C498.395 55.2837 538.519 25.0282 578.287 31.9538C602.797 36.2322 624.94 53.9127 645.948 86.0356L643.985 87.3357C623.332 55.8037 601.708 38.4304 577.885 34.2939C539.11 27.5337 499.436 57.482 461.04 86.2956C426.145 112.84 390.09 139.999 354.178 139.999Z" fill="#C9E4F4"/>
<path d="M549.004 13.4353L547.839 15.4928L758.358 134.447L759.523 132.389L549.004 13.4353Z" fill="#C9E4F4"/>
<path d="M505.397 18.3294L503.453 19.6767L608.715 171.28L610.659 169.933L505.397 18.3294Z" fill="#C9E4F4"/>
<path d="M461.632 45.9232H459.266V283.524H461.632V45.9232Z" fill="#C9E4F4"/>
<path d="M415.18 72.335L310.113 395.993L312.363 396.723L417.43 73.0642L415.18 72.335Z" fill="#C9E4F4"/>
<path d="M371.275 76.6761L161.013 433.036L163.051 434.236L373.313 77.8765L371.275 76.6761Z" fill="#C9E4F4"/>
</g>
<path d="M188.362 437C181.463 437.011 174.571 436.561 167.732 435.652C111.498 428.159 60.4682 390.364 11.5914 320.091L11 319.24L11.7807 318.554L328.675 35.452L329.409 36.6575C344.526 60.602 360.353 73.9806 377.836 77.5262C404.948 83.0336 432.817 63.6748 459.763 44.9542C487.111 26.0445 515.406 6.28382 543.511 12.004C561.585 15.6678 577.886 29.3064 593.31 53.6999L719.051 130.544C730.411 129.594 741.84 129.864 753.142 131.348C809.376 138.841 860.406 176.637 909.282 246.91L912.476 251.519L718.483 132.908C632.559 140.259 545.616 213.274 461.206 284.328C371.851 359.517 279.68 437 188.362 437ZM14.2174 319.641C62.4082 388.78 112.728 426.009 167.992 433.336C264.989 446.242 363.949 363.086 459.621 282.626C543.298 212.305 629.459 139.881 715.124 130.97L591.607 55.4491L591.465 55.2127C576.348 31.2683 560.521 17.866 542.943 14.3205C515.831 8.813 487.963 28.1718 461.017 46.8924C433.668 65.8021 405.397 85.5628 377.268 79.8426C359.407 76.2261 343.32 62.8948 328.06 39.0922L14.2174 319.641ZM722.529 132.719L903.983 243.648C856.668 176.944 807.105 140.968 752.834 133.735C742.789 132.421 732.641 132.073 722.529 132.695V132.719Z" fill="url(#paint0_linear)"/>
<path d="M221.507 377.576C215.176 377.58 208.853 377.153 202.58 376.3C152.805 369.469 107.642 335.715 64.3012 273.076L66.2648 271.729C109.085 333.776 153.798 367.223 203.006 373.96C288.363 385.636 375.447 313.141 459.668 243.01C544.316 172.547 631.826 99.8159 718.2 111.634C768.07 118.466 813.327 152.219 856.574 214.858L854.61 216.205C811.79 154.134 767.077 120.711 717.869 113.975C632.535 102.298 545.428 174.793 461.206 244.924C382.71 310.187 301.753 377.576 221.507 377.576Z" fill="url(#paint1_linear)"/>
<path d="M254.627 318.152C248.944 318.151 243.268 317.748 237.641 316.947C194.087 310.777 154.626 281.042 116.987 226.038L118.927 224.715C156.211 279.08 195.175 308.532 238.019 314.536C311.713 324.983 387.063 263.149 459.739 203.441C532.913 143.285 608.57 81.119 683.281 91.7084C726.835 97.8777 766.296 127.613 803.935 182.617L801.995 183.941C764.711 129.575 725.746 100.123 682.902 94.1194C609.209 83.6718 533.859 145.507 461.182 205.214C393.569 260.809 323.802 318.152 254.627 318.152Z" fill="url(#paint2_linear)"/>
<path d="M287.794 258.729C282.703 258.736 277.619 258.364 272.582 257.618C235.393 252.086 201.609 226.369 169.553 179.024L171.517 177.819C203.265 224.597 236.434 249.983 272.937 255.396C334.968 264.638 398.323 213.44 459.691 163.92C521.414 114.093 585.243 62.5639 648.29 71.9479C685.48 77.479 719.263 103.173 751.32 150.541L749.356 151.865C717.607 105.087 684.439 79.7009 647.935 74.288C585.905 65.0695 522.55 116.244 461.182 165.764C404.427 211.454 345.898 258.729 287.794 258.729Z" fill="url(#paint3_linear)"/>
<path d="M320.963 199.352C316.464 199.359 311.971 199.011 307.526 198.312C276.771 193.419 248.76 171.72 222.169 131.986L224.133 130.662C250.345 169.829 277.741 191.197 307.904 195.972C358.295 203.937 409.845 163.4 459.716 124.186C509.965 84.6644 561.941 43.8194 613.349 51.9269C644.104 56.8198 672.115 78.5187 698.706 118.253L696.719 119.576C670.53 80.4097 643.134 59.0417 612.97 54.267C562.603 46.3013 511.029 86.839 461.159 126.053C415.192 162.147 367.877 199.352 320.963 199.352Z" fill="url(#paint4_linear)"/>
<path d="M354.178 139.999C350.213 140.008 346.255 139.668 342.349 138.983C317.84 134.728 295.696 117.024 274.665 84.901L276.652 83.601C297.305 115.157 318.928 132.506 342.751 136.666C381.503 143.403 421.2 113.478 459.597 84.5228C498.395 55.2837 538.519 25.0282 578.287 31.9538C602.797 36.2322 624.94 53.9127 645.948 86.0356L643.985 87.3357C623.332 55.8037 601.708 38.4304 577.885 34.2939C539.11 27.5337 499.436 57.482 461.04 86.2956C426.145 112.84 390.09 139.999 354.178 139.999Z" fill="url(#paint5_linear)"/>
<path d="M549.004 13.4353L547.839 15.4928L758.358 134.447L759.523 132.389L549.004 13.4353Z" fill="url(#paint6_linear)"/>
<path d="M505.397 18.3294L503.453 19.6767L608.715 171.28L610.659 169.933L505.397 18.3294Z" fill="url(#paint7_linear)"/>
<path d="M461.632 45.9232H459.266V283.524H461.632V45.9232Z" fill="url(#paint8_linear)"/>
<path d="M415.18 72.335L310.113 395.993L312.363 396.723L417.43 73.0642L415.18 72.335Z" fill="url(#paint9_linear)"/>
<path d="M371.275 76.6761L161.013 433.036L163.051 434.236L373.313 77.8765L371.275 76.6761Z" fill="url(#paint10_linear)"/>
<defs>
<filter id="filter0_f" x="0" y="0" width="923.476" height="448" filterUnits="userSpaceOnUse" color-interpolation-filters="sRGB">
<feFlood flood-opacity="0" result="BackgroundImageFix"/>
<feBlend mode="normal" in="SourceGraphic" in2="BackgroundImageFix" result="shape"/>
<feGaussianBlur stdDeviation="5.5" result="effect1_foregroundBlur"/>
</filter>
<linearGradient id="paint0_linear" x1="13.6709" y1="435.718" x2="156.355" y2="-168.155" gradientUnits="userSpaceOnUse">
<stop stop-color="#E7138A"/>
<stop offset="0.184" stop-color="#902A8B"/>
<stop offset="0.4172" stop-color="#65318D"/>
<stop offset="0.6748" stop-color="#3860AC"/>
<stop offset="1" stop-color="#2AA7DF"/>
</linearGradient>
<linearGradient id="paint1_linear" x1="66.6486" y1="376.772" x2="132.227" y2="-12.1005" gradientUnits="userSpaceOnUse">
<stop stop-color="#E7138A"/>
<stop offset="0.184" stop-color="#902A8B"/>
<stop offset="0.4172" stop-color="#65318D"/>
<stop offset="0.6748" stop-color="#3860AC"/>
<stop offset="1" stop-color="#2AA7DF"/>
</linearGradient>
<linearGradient id="paint2_linear" x1="119.022" y1="317.467" x2="173.961" y2="-14.1207" gradientUnits="userSpaceOnUse">
<stop stop-color="#E7138A"/>
<stop offset="0.184" stop-color="#902A8B"/>
<stop offset="0.4172" stop-color="#65318D"/>
<stop offset="0.6748" stop-color="#3860AC"/>
<stop offset="1" stop-color="#2AA7DF"/>
</linearGradient>
<linearGradient id="paint3_linear" x1="171.277" y1="258.163" x2="215.536" y2="-15.9092" gradientUnits="userSpaceOnUse">
<stop stop-color="#E7138A"/>
<stop offset="0.184" stop-color="#902A8B"/>
<stop offset="0.4172" stop-color="#65318D"/>
<stop offset="0.6748" stop-color="#3860AC"/>
<stop offset="1" stop-color="#2AA7DF"/>
</linearGradient>
<linearGradient id="paint4_linear" x1="223.581" y1="198.905" x2="257.374" y2="-18.0321" gradientUnits="userSpaceOnUse">
<stop stop-color="#E7138A"/>
<stop offset="0.184" stop-color="#902A8B"/>
<stop offset="0.4172" stop-color="#65318D"/>
<stop offset="0.6748" stop-color="#3860AC"/>
<stop offset="1" stop-color="#2AA7DF"/>
</linearGradient>
<linearGradient id="paint5_linear" x1="275.765" y1="139.671" x2="299.226" y2="-20.0912" gradientUnits="userSpaceOnUse">
<stop stop-color="#E7138A"/>
<stop offset="0.184" stop-color="#902A8B"/>
<stop offset="0.4172" stop-color="#65318D"/>
<stop offset="0.6748" stop-color="#3860AC"/>
<stop offset="1" stop-color="#2AA7DF"/>
</linearGradient>
<linearGradient id="paint6_linear" x1="757.728" y1="134.083" x2="761.088" y2="127.856" gradientUnits="userSpaceOnUse">
<stop stop-color="#E7138A"/>
<stop offset="0.184" stop-color="#902A8B"/>
<stop offset="0.4172" stop-color="#65318D"/>
<stop offset="0.6748" stop-color="#3860AC"/>
<stop offset="1" stop-color="#2AA7DF"/>
</linearGradient>
<linearGradient id="paint7_linear" x1="608.405" y1="170.82" x2="614.112" y2="166.636" gradientUnits="userSpaceOnUse">
<stop stop-color="#E7138A"/>
<stop offset="0.184" stop-color="#902A8B"/>
<stop offset="0.4172" stop-color="#65318D"/>
<stop offset="0.6748" stop-color="#3860AC"/>
<stop offset="1" stop-color="#2AA7DF"/>
</linearGradient>
<linearGradient id="paint8_linear" x1="459.273" y1="282.809" x2="466.352" y2="282.668" gradientUnits="userSpaceOnUse">
<stop stop-color="#E7138A"/>
<stop offset="0.184" stop-color="#902A8B"/>
<stop offset="0.4172" stop-color="#65318D"/>
<stop offset="0.6748" stop-color="#3860AC"/>
<stop offset="1" stop-color="#2AA7DF"/>
</linearGradient>
<linearGradient id="paint9_linear" x1="312.668" y1="395.761" x2="309.304" y2="394.657" gradientUnits="userSpaceOnUse">
<stop stop-color="#E7138A"/>
<stop offset="0.184" stop-color="#902A8B"/>
<stop offset="0.4172" stop-color="#65318D"/>
<stop offset="0.6748" stop-color="#3860AC"/>
<stop offset="1" stop-color="#2AA7DF"/>
</linearGradient>
<linearGradient id="paint10_linear" x1="163.667" y1="433.177" x2="160.624" y2="431.369" gradientUnits="userSpaceOnUse">
<stop stop-color="#E7138A"/>
<stop offset="0.184" stop-color="#902A8B"/>
<stop offset="0.4172" stop-color="#65318D"/>
<stop offset="0.6748" stop-color="#3860AC"/>
<stop offset="1" stop-color="#2AA7DF"/>
</linearGradient>
</defs>
</svg>
