<svg width="74" height="12" viewBox="0 0 74 12" fill="none" xmlns="http://www.w3.org/2000/svg">
<path opacity="0.4" d="M3.0118 4.94843L63.8973 4.94843C66.714 4.94843 69 5.39643 69 5.94843C69 6.50043 66.714 6.94843 63.8973 6.94843L3.0118 6.94843C0.195102 6.94843 0 6.50043 0 5.94843C0 5.39643 0.195102 4.94843 3.0118 4.94843Z" fill="white"/>
<mask id="mask0" style="mask-type:alpha" maskUnits="userSpaceOnUse" x="64" y="0" width="10" height="12">
<path fill-rule="evenodd" clip-rule="evenodd" d="M64.4786 11.4482V0.551784H73.418V11.4482H64.4786Z" fill="white"/>
</mask>
<g mask="url(#mask0)">
<path d="M65.1891 0.551499C65.3217 0.551499 65.4525 0.588447 65.5681 0.660446L73.0864 5.39824C73.2929 5.52897 73.4189 5.75539 73.4189 5.99981C73.4189 6.24424 73.2929 6.47066 73.0864 6.60139L65.5681 11.3392C65.3492 11.4766 65.0726 11.4851 64.8462 11.3591C64.6188 11.234 64.4786 10.9962 64.4786 10.7376V1.26202C64.4786 1.00339 64.6188 0.765604 64.8462 0.640552C64.9532 0.580868 65.0716 0.551499 65.1891 0.551499Z" fill="white"/>
</g>
</svg>
