<svg width="24" height="24" viewBox="0 0 24 24" fill="none" xmlns="http://www.w3.org/2000/svg">
<path opacity="0.4" d="M14.4184 5.48994C13.9423 5.402 13.5051 5.70579 13.4145 6.17047C13.3239 6.63515 13.6286 7.08884 14.0917 7.17978C15.486 7.45159 16.5626 8.53085 16.8354 9.92989V9.93089C16.9131 10.3336 17.2677 10.6264 17.676 10.6264C17.7308 10.6264 17.7855 10.6214 17.8413 10.6114C18.3044 10.5185 18.6091 10.0658 18.5185 9.60012C18.1112 7.51055 16.5028 5.89666 14.4184 5.48994Z" fill="#45A9E2"/>
<path opacity="0.4" d="M14.3561 2.00793C14.133 1.97595 13.9089 2.04191 13.7307 2.18381C13.5474 2.32771 13.4329 2.53557 13.408 2.76841C13.3552 3.23908 13.6948 3.66479 14.1649 3.71776C17.4065 4.07951 19.9262 6.60477 20.2907 9.85654C20.3395 10.2922 20.705 10.621 21.1412 10.621C21.174 10.621 21.2059 10.619 21.2388 10.615C21.4668 10.59 21.67 10.4771 21.8134 10.2972C21.9558 10.1174 22.0206 9.89351 21.9947 9.66467C21.5405 5.60746 18.4005 2.45862 14.3561 2.00793Z" fill="#45A9E2"/>
<path d="M17.6049 14.673C16.9566 14.5351 16.4437 14.8349 15.9896 15.0967C15.5245 15.3666 14.6391 16.0811 14.1332 15.8972C11.5379 14.8339 9.09693 12.5705 8.04028 9.97626C7.85405 9.45961 8.56811 8.57322 8.83601 8.10554C9.09793 7.65185 9.39272 7.13521 9.25827 6.48566C9.13677 5.90106 7.56524 3.90943 7.00952 3.3648C6.64204 3.00505 6.26758 2.80718 5.88216 2.7742C4.43313 2.71325 2.81479 4.63892 2.53095 5.09961C1.81888 6.08193 1.82386 7.38904 2.5429 8.97395C4.27577 13.231 10.8298 19.6556 15.1201 21.4464C15.9109 21.8151 16.6359 22 17.2862 22C17.9226 22 18.4893 21.8231 18.9763 21.4724C19.3428 21.2615 21.3565 19.5697 21.3027 18.0877C21.2718 17.7099 21.0736 17.3322 20.7171 16.9665C20.1734 16.4078 18.1875 14.7959 17.6049 14.673Z" fill="#45A9E2"/>
</svg>
