<svg width="118" height="51" viewBox="0 0 118 51" fill="none" xmlns="http://www.w3.org/2000/svg">
<path d="M56.7562 21.5782C56.6015 21.9601 56.2296 22.2084 55.8183 22.2084H54.6353L59.1934 11.4284H61.1188L65.6621 22.2084H64.4954C64.0841 22.2084 63.7122 21.9599 63.5558 21.5782L62.8597 19.8817H57.4542L56.7562 21.5782ZM59.9485 13.7389L58.0545 18.3431H62.2425L60.3485 13.7389C60.2663 13.5135 60.2004 13.3111 60.1494 13.1384C60.0966 13.3111 60.0307 13.5135 59.9485 13.7389Z" fill="#45A9E2"/>
<path d="M75.1187 15.4947C75.1187 14.9616 75.1236 14.57 75.1335 14.3248L69.3281 22.2086H67.6793V11.4286H68.4213C68.9808 11.4286 69.4351 11.8844 69.4351 12.4455V18.1291C69.4351 18.6737 69.4302 19.067 69.4202 19.3139L75.2257 11.4284H76.8745V22.2084H76.1339C75.5728 22.2084 75.1187 21.7558 75.1187 21.1947V15.4947ZM74.533 8.44186C73.8551 8.88284 73.1014 9.10341 72.2686 9.10341C71.4278 9.10341 70.6675 8.88452 69.9896 8.44186V9.33038C69.9896 9.66115 70.146 9.98199 70.4405 10.1269C70.972 10.3886 71.5793 10.5202 72.2688 10.5202C72.9484 10.5202 73.554 10.3886 74.0805 10.1269C74.3768 9.98047 74.5331 9.66284 74.5331 9.33038V8.44186H74.533Z" fill="#45A9E2"/>
<path d="M79.0153 11.4286H87.9012V12.0308C87.9012 12.5902 87.4471 13.046 86.8859 13.046H84.3436V22.2084H82.5878V13.046H80.0305C79.4694 13.046 79.0153 12.5902 79.0153 12.0308V11.4286Z" fill="#45A9E2"/>
<path d="M99.2358 22.2084H98.4969C97.9341 22.2084 97.4817 21.7558 97.4817 21.1947V15.4946C97.4817 14.9614 97.4865 14.5698 97.4965 14.3247L91.6894 22.2084H90.0422V11.4284H90.7828C91.3439 11.4284 91.798 11.8825 91.798 12.4453V18.129C91.798 18.6736 91.7932 19.0669 91.7832 19.3137L97.5887 11.4282H99.2358V22.2084Z" fill="#45A9E2"/>
<path d="M55.188 33.4837C55.188 32.5605 55.3526 31.7279 55.6832 30.989C56.0106 30.2484 56.4467 29.6528 56.9915 29.1953C57.5345 28.7378 58.1417 28.3922 58.8081 28.1553C59.4762 27.92 60.1738 27.7999 60.9029 27.7999C62.0021 27.7999 63.0224 28.0368 63.9685 28.5091C63.9685 29.2315 63.1145 29.7004 62.4102 29.5426C62.0284 29.4586 61.6236 29.4175 61.1958 29.4175C60.0554 29.4175 59.0715 29.7614 58.2404 30.4476C57.4078 31.1371 56.9866 32.1491 56.9766 33.4837C56.9766 34.3245 57.1921 35.0503 57.6233 35.6559C58.0545 36.2615 58.5826 36.6959 59.2096 36.9641C59.8366 37.2324 60.508 37.3657 61.2271 37.3657C61.6747 37.3657 62.0877 37.3246 62.4712 37.239C63.169 37.0876 64.046 37.5598 64.046 38.2741C63.0817 38.7479 62.0385 38.9833 60.9194 38.9833C60.2003 38.9833 59.5092 38.8665 58.8411 38.636C58.173 38.4055 57.5625 38.0683 57.008 37.6274C56.4534 37.1864 56.0124 36.6056 55.6834 35.8881C55.3526 35.1687 55.188 34.3658 55.188 33.4837Z" fill="#45A9E2"/>
<path d="M68.372 37.7655C68.372 38.3266 67.9179 38.7824 67.3568 38.7824H66.6162V28.0024H75.6732V38.7824H74.9327C74.3716 38.7824 73.9174 38.3266 73.9174 37.7655V29.6169H68.372V37.7655Z" fill="#45A9E2"/>
<path d="M78.6271 28.0024H86.0502V28.5866C86.0502 29.1477 85.5961 29.6035 85.035 29.6035H80.3831V32.5441H85.588V34.1452H80.3831V37.1813H85.1272C85.6883 37.1813 86.1424 37.6339 86.1424 38.195V38.7809H78.6271V28.0024Z" fill="#45A9E2"/>
<path d="M90.5326 38.7824H88.7751V28.0024H90.5326V32.4981H92.6569L95.3589 28.4516C95.5464 28.1702 95.864 28.0024 96.2014 28.0024H97.6478L94.0737 33.2533L97.9243 38.7823H96.4664C96.1357 38.7823 95.8246 38.6193 95.6339 38.3462L92.6884 34.1156H90.5327V38.7824H90.5326Z" fill="#45A9E2"/>
<path d="M98.7405 28.0024H107.626V28.6014C107.626 29.1642 107.172 29.6167 106.611 29.6167H104.069V38.7824H102.315V29.6167H99.7558C99.1947 29.6167 98.7405 29.1641 98.7405 28.6014V28.0024Z" fill="#45A9E2"/>
<path d="M109.545 28.0024H113.396C116.465 28.0024 118 29.1823 118 31.5437C118 33.9051 116.465 35.0882 113.396 35.0882H111.301V37.777C111.301 38.3315 110.85 38.7824 110.296 38.7824H109.545V28.0024ZM115.482 33.0609C115.969 32.7778 116.213 32.2726 116.213 31.5437C116.213 30.8147 115.969 30.3096 115.482 30.0282C114.995 29.7436 114.33 29.6035 113.488 29.6035H111.301V33.4837H113.488C114.33 33.4837 114.994 33.3438 115.482 33.0609Z" fill="#45A9E2"/>
<path d="M22.3972 27.731C23.7877 27.731 24.9116 26.6038 24.9116 25.2149C24.9116 23.8259 23.7877 22.6988 22.3972 22.6988C21.0084 22.6988 19.8828 23.8259 19.8828 25.2149C19.8828 26.6038 21.0084 27.731 22.3972 27.731Z" fill="url(#paint0_linear)"/>
<path d="M32.9617 27.731C34.3488 27.731 35.4761 26.6038 35.4761 25.2149C35.4761 23.8259 34.3489 22.6988 32.9617 22.6988C31.5712 22.6988 30.4456 23.8259 30.4456 25.2149C30.4456 26.6038 31.5712 27.731 32.9617 27.731Z" fill="url(#paint1_linear)"/>
<path d="M43.5228 27.731C44.9133 27.731 46.0389 26.6038 46.0389 25.2149C46.0389 23.8259 44.9133 22.6988 43.5228 22.6988C42.1357 22.6988 41.0084 23.8259 41.0084 25.2149C41.0084 26.6038 42.1355 27.731 43.5228 27.731Z" fill="url(#paint2_linear)"/>
<path d="M40.3551 38.8975C40.286 38.8975 40.2169 38.9041 40.1478 38.9075V38.8975C33.9819 38.8975 25.1503 38.8992 25.1503 38.8992C23.3254 38.8992 21.5828 38.5388 19.9882 37.8889L9.70024 40.9841L12.7067 30.9924C11.8724 29.2168 11.4018 27.2389 11.4018 25.1507C11.4018 17.5697 17.5694 11.4004 25.1503 11.4004H40.1692V11.3758C40.2152 11.3758 40.258 11.3824 40.3042 11.3824C43.4456 11.3824 45.9946 8.83346 45.9946 5.69205C45.9946 5.65094 45.9897 5.61134 45.988 5.57022H45.9946V0.00168411C45.988 0.00168411 43.5312 0 40.3109 0C40.3076 0 40.306 0 40.3044 0C40.301 0 40.2995 0 40.2961 0C34.1253 0 25.1488 0 25.1488 0C11.2604 0 0 11.2587 0 25.1505C0 39.0389 11.2604 50.2993 25.1488 50.2993H45.9403C45.9583 50.2993 45.9748 50.2976 45.9946 50.2976V45.0681C46.0208 44.8526 46.0374 44.6337 46.0374 44.4132C46.0387 41.3675 43.4948 38.8975 40.3551 38.8975Z" fill="url(#paint3_linear)"/>
<defs>
<linearGradient id="paint0_linear" x1="19.8977" y1="27.7158" x2="22.9115" y2="21.6922" gradientUnits="userSpaceOnUse">
<stop stop-color="#E7138A"/>
<stop offset="0.184" stop-color="#902A8B"/>
<stop offset="0.4172" stop-color="#65318D"/>
<stop offset="0.6748" stop-color="#3860AC"/>
<stop offset="1" stop-color="#2AA7DF"/>
</linearGradient>
<linearGradient id="paint1_linear" x1="30.4605" y1="27.7158" x2="33.4737" y2="21.6914" gradientUnits="userSpaceOnUse">
<stop stop-color="#E7138A"/>
<stop offset="0.184" stop-color="#902A8B"/>
<stop offset="0.4172" stop-color="#65318D"/>
<stop offset="0.6748" stop-color="#3860AC"/>
<stop offset="1" stop-color="#2AA7DF"/>
</linearGradient>
<linearGradient id="paint2_linear" x1="41.0233" y1="27.7158" x2="44.0365" y2="21.6914" gradientUnits="userSpaceOnUse">
<stop stop-color="#E7138A"/>
<stop offset="0.184" stop-color="#902A8B"/>
<stop offset="0.4172" stop-color="#65318D"/>
<stop offset="0.6748" stop-color="#3860AC"/>
<stop offset="1" stop-color="#2AA7DF"/>
</linearGradient>
<linearGradient id="paint3_linear" x1="0.136401" y1="50.148" x2="31.8099" y2="-7.83116" gradientUnits="userSpaceOnUse">
<stop stop-color="#E7138A"/>
<stop offset="0.184" stop-color="#902A8B"/>
<stop offset="0.4172" stop-color="#65318D"/>
<stop offset="0.6748" stop-color="#3860AC"/>
<stop offset="1" stop-color="#2AA7DF"/>
</linearGradient>
</defs>
</svg>
